<?xml version="1.0" standalone="no"?>
<svg width="1020" height="440" version="1.1" xmlns="http://www.w3.org/2000/svg">
  <defs>
      <radialGradient id="RadialGradient1">
        <stop offset="0%" stop-color="red"/>
        <stop offset="100%" stop-color="blue"/>
      </radialGradient>
      <radialGradient id="RadialGradient2" cx="0.25" cy="0.25" r="0.25">
        <stop offset="0%" stop-color="red"/>
        <stop offset="100%" stop-color="blue"/>
      </radialGradient>
  </defs>
 
  <!-- <rect x="10" y="120" rx="15" ry="15" width="100" height="100" opacity=".1"/>
  <rect x="10" y="10" rx="15" ry="15" width="100" height="100" fill="url(#RadialGradient2)"/>
  <rect x="20" y="10" rx="15" ry="15" width="90" height="100" stroke="black" opacity=".9"/>
  <polygon points="50 160 55 180 70 180 60 190 65 205 50 195 35 205 40 190 30 180 45 180"
      stroke="green" fill="yellow" stroke-width="1"/>
  <rect x="45" y="160" width="45" height="46"
       opacity=".9" stroke-width="1"/> -->
    <svg width="100" height="100" viewBox="0 0 200 200" fill="grey" stroke="black">
        <g fill="red" transform="scale(2)">
            <rect x="0" y="0" width="10" height="10" transform="translate(30,40)" />
            <rect x="20" y="0" width="10" height="10" transform="rotate(45)"/>
        </g>
    </svg>
     <defs>
    <clipPath id="cut-off-bottom">
      <rect x="0" y="0" width="200" height="100" />
    </clipPath>
  </defs>

  <circle cx="100" cy="100" r="100" clip-path="url(#cut-off-bottom)" />

   <defs>
    <linearGradient id="Gradient">
      <stop offset="0" stop-color="white" stop-opacity="0" />
      <stop offset="1" stop-color="white" stop-opacity="1" />
    </linearGradient>
    <mask id="Mask">
      <rect x="0" y="0" width="200" height="200" fill="url(#Gradient)"  />
    </mask>
  </defs>

  <rect x="0" y="0" width="200" height="200" fill="green" />
  <rect x="0" y="0" width="200" height="200" fill="red" mask="url(#Mask)" />
         <!-- <path id="my_path" d="M 120,20 C 140,40 180,40 140,20" />
    <text>
        <textPath xlink:href="#my_path">This text follows a curve.</textPath>
    </text> -->
</svg>